<?xml version="1.0" encoding="UTF-8"?>
<!DOCTYPE svg PUBLIC "-//W3C//DTD SVG 1.1//EN" "http://www.w3.org/Graphics/SVG/1.1/DTD/svg11.dtd">
<svg xmlns="http://www.w3.org/2000/svg" version="1.1" width="620px" height="620px" style="shape-rendering:geometricPrecision; text-rendering:geometricPrecision; image-rendering:optimizeQuality; fill-rule:evenodd; clip-rule:evenodd" xmlns:xlink="http://www.w3.org/1999/xlink">
<g><path style="opacity:0.991" fill="#fefffe" d="M 297.5,123.5 C 339.168,121.03 370.001,138.03 390,174.5C 408.881,215.224 405.881,254.224 381,291.5C 356.116,322.354 324.282,333.521 285.5,325C 251.162,312.66 229.328,288.827 220,253.5C 212.525,220.341 218.192,189.674 237,161.5C 252.483,141.147 272.65,128.481 297.5,123.5 Z"/></g>
<g><path style="opacity:0.995" fill="#fefffe" d="M 232.5,342.5 C 234.857,342.337 237.19,342.503 239.5,343C 285.586,371.323 331.919,371.656 378.5,344C 381.5,343.333 384.5,343.333 387.5,344C 407.759,352.527 427.425,362.193 446.5,373C 463.906,383.072 478.073,396.572 489,413.5C 494.635,424.675 496.801,436.508 495.5,449C 498.195,472.301 488.528,487.635 466.5,495C 361.833,495.667 257.167,495.667 152.5,495C 137.333,491.167 127.833,481.667 124,466.5C 117.673,434.137 127.173,407.637 152.5,387C 158.5,382.667 164.5,378.333 170.5,374C 190.822,362.673 211.489,352.173 232.5,342.5 Z"/></g>
</svg>
